<svg role="img" viewBox="0 0 367 150" xmlns="http://www.w3.org/2000/svg">
<rect y="67.963" width="13.5926" height="13.5926" />
<rect x="11.894" y="107.042" width="8.49536" height="8.49536" />
<rect x="13.5931" y="81.5555" width="13.5926" height="13.5926" />
<rect x="27.1851" y="81.5555" width="13.5926" height="13.5926" />
<rect x="40.7781" y="81.5555" width="13.5926" height="13.5926" />
<rect x="54.37" y="81.5555" width="13.5926" height="13.5926" />
<rect x="67.9633" y="81.5555" width="13.5926" height="13.5926" />
<rect x="81.5558" y="81.5555" width="13.5926" height="13.5926" />
<rect x="95.1477" y="81.5555" width="13.5926" height="13.5926" />
<rect x="108.741" y="81.5555" width="13.5926" height="13.5926" />
<rect x="122.333" y="81.5555" width="13.5926" height="13.5926" />
<rect x="135.926" y="81.5555" width="13.5926" height="13.5926" />
<rect x="149.518" y="81.5555" width="13.5926" height="13.5926" />
<rect x="163.111" y="81.5555" width="13.5926" height="13.5926" />
<rect x="176.704" y="81.5555" width="13.5926" height="13.5926" />
<rect x="190.296" y="81.5555" width="13.5926" height="13.5926" />
<rect x="203.889" y="81.5555" width="13.5926" height="13.5926" />
<rect x="217.481" y="81.5555" width="13.5926" height="13.5926" />
<rect x="231.074" y="81.5555" width="13.5926" height="13.5926" />
<rect x="244.667" y="81.5555" width="13.5926" height="13.5926" />
<rect x="258.259" y="81.5555" width="13.5926" height="13.5926" />
<rect x="271.852" y="81.5555" width="13.5926" height="13.5926" />
<rect x="285.444" y="81.5555" width="13.5926" height="13.5926" />
<rect x="299.037" y="81.5555" width="13.5926" height="13.5926" />
<rect x="312.63" y="81.5555" width="13.5926" height="13.5926" />
<rect x="326.222" y="81.5555" width="13.5926" height="13.5926" />
<rect x="339.815" y="81.5555" width="13.5926" height="13.5926" />
<rect x="11.894" y="132.528" width="8.49536" height="8.49536" />
<rect x="11.894" y="141.023" width="8.49536" height="8.49536" />
<rect x="79.8564" y="132.528" width="8.49536" height="8.49536" />
<rect x="96.8469" y="141.023" width="8.49536" height="8.49536" />
<rect x="96.8469" y="132.528" width="8.49536" height="8.49536" />
<rect x="113.838" y="132.528" width="8.49536" height="8.49536" />
<rect x="130.829" y="132.528" width="8.49536" height="8.49536" />
<rect x="122.333" y="132.528" width="8.49536" height="8.49536" />
<rect x="96.8469" y="124.032" width="8.49536" height="8.49536" />
<rect x="105.343" y="115.537" width="8.49536" height="8.49536" />
<rect x="113.838" y="107.042" width="8.49536" height="8.49536" />
<rect x="122.333" y="115.537" width="8.49536" height="8.49536" />
<rect x="130.829" y="124.032" width="8.49536" height="8.49536" />
<rect x="130.829" y="141.023" width="8.49536" height="8.49536" />
<rect x="147.819" y="132.528" width="8.49536" height="8.49536" />
<rect x="147.819" y="124.032" width="8.49536" height="8.49536" />
<rect x="147.819" y="115.537" width="8.49536" height="8.49536" />
<rect x="147.819" y="107.042" width="8.49536" height="8.49536" />
<rect x="156.315" y="107.042" width="8.49536" height="8.49536" />
<rect x="164.81" y="107.042" width="8.49536" height="8.49536" />
<rect x="173.305" y="115.537" width="8.49536" height="8.49536" />
<rect x="198.792" y="115.537" width="8.49536" height="8.49536" />
<rect x="198.792" y="107.042" width="8.49536" height="8.49536" />
<rect x="190.296" y="107.042" width="8.49536" height="8.49536" />
<rect x="207.287" y="107.042" width="8.49536" height="8.49536" />
<rect x="207.287" y="141.023" width="8.49536" height="8.49536" />
<rect x="224.278" y="141.023" width="8.49536" height="8.49536" />
<rect x="224.278" y="132.528" width="8.49536" height="8.49536" />
<rect x="224.278" y="124.032" width="8.49536" height="8.49536" />
<rect x="224.278" y="115.537" width="8.49536" height="8.49536" />
<rect x="224.278" y="107.042" width="8.49536" height="8.49536" />
<rect x="232.773" y="115.537" width="8.49536" height="8.49536" />
<rect x="241.268" y="124.032" width="8.49536" height="8.49536" />
<rect x="249.764" y="132.528" width="8.49536" height="8.49536" />
<rect x="258.259" y="141.023" width="8.49536" height="8.49536" />
<rect x="266.755" y="132.528" width="8.49536" height="8.49536" />
<rect x="266.755" y="124.032" width="8.49536" height="8.49536" />
<rect x="283.745" y="124.032" width="8.49536" height="8.49536" />
<rect x="309.231" y="141.023" width="8.49536" height="8.49536" />
<rect x="300.736" y="141.023" width="8.49536" height="8.49536" />
<rect x="317.727" y="132.528" width="8.49536" height="8.49536" />
<rect x="309.231" y="124.032" width="8.49536" height="8.49536" />
<rect x="317.727" y="124.032" width="8.49536" height="8.49536" />
<rect x="292.241" y="141.023" width="8.49536" height="8.49536" />
<rect x="283.745" y="132.528" width="8.49536" height="8.49536" />
<rect x="283.745" y="115.537" width="8.49536" height="8.49536" />
<rect x="300.736" y="107.042" width="8.49536" height="8.49536" />
<rect x="292.241" y="107.042" width="8.49536" height="8.49536" />
<rect x="309.231" y="107.042" width="8.49536" height="8.49536" />
<rect x="266.755" y="141.023" width="8.49536" height="8.49536" />
<rect x="266.755" y="115.537" width="8.49536" height="8.49536" />
<rect x="266.755" y="107.042" width="8.49536" height="8.49536" />
<rect x="190.296" y="141.023" width="8.49536" height="8.49536" />
<rect x="173.305" y="124.032" width="8.49536" height="8.49536" />
<rect x="198.792" y="124.032" width="8.49536" height="8.49536" />
<rect x="156.315" y="141.023" width="8.49536" height="8.49536" />
<rect x="198.792" y="132.528" width="8.49536" height="8.49536" />
<rect x="198.792" y="141.023" width="8.49536" height="8.49536" />
<rect x="164.81" y="141.023" width="8.49536" height="8.49536" />
<rect x="173.305" y="132.528" width="8.49536" height="8.49536" />
<rect x="147.819" y="141.023" width="8.49536" height="8.49536" />
<rect x="105.343" y="132.528" width="8.49536" height="8.49536" />
<rect x="79.8564" y="124.032" width="8.49536" height="8.49536" />
<rect x="79.8564" y="115.537" width="8.49536" height="8.49536" />
<rect x="54.37" y="124.032" width="8.49536" height="8.49536" />
<rect x="54.37" y="115.537" width="8.49536" height="8.49536" />
<rect x="62.866" y="107.042" width="8.49536" height="8.49536" />
<rect x="71.3608" y="107.042" width="8.49536" height="8.49536" />
<rect x="71.3608" y="141.023" width="8.49536" height="8.49536" />
<rect x="62.866" y="141.023" width="8.49536" height="8.49536" />
<rect x="54.37" y="132.528" width="8.49536" height="8.49536" />
<rect x="37.3798" y="141.023" width="8.49536" height="8.49536" />
<rect x="28.8843" y="141.023" width="8.49536" height="8.49536" />
<rect x="20.3893" y="141.023" width="8.49536" height="8.49536" />
<rect x="353.407" y="67.963" width="13.5926" height="13.5926" />
<rect x="353.407" y="54.3704" width="13.5926" height="13.5926" />
<rect x="353.407" y="40.7777" width="13.5926" height="13.5926" />
<rect x="353.407" y="27.1852" width="13.5926" height="13.5926" />
<rect x="353.407" y="13.5926" width="13.5926" height="13.5926" />
<rect x="11.894" y="115.537" width="8.49536" height="8.49536" />
<rect x="13.5931" width="13.5926" height="13.5926" />
<rect x="27.1851" width="13.5926" height="13.5926" />
<rect x="27.1851" y="27.1852" width="13.5926" height="13.5926" />
<rect x="67.9633" y="27.1852" width="13.5926" height="13.5926" />
<rect x="108.741" y="27.1852" width="13.5926" height="13.5926" />
<rect x="149.518" y="27.1852" width="13.5926" height="13.5926" />
<rect x="190.296" y="27.1852" width="13.5926" height="13.5926" />
<rect x="27.1851" y="40.7777" width="13.5926" height="13.5926" />
<rect x="67.9633" y="40.7777" width="13.5926" height="13.5926" />
<rect x="108.741" y="40.7777" width="13.5926" height="13.5926" />
<rect x="149.518" y="40.7777" width="13.5926" height="13.5926" />
<rect x="190.296" y="40.7777" width="13.5926" height="13.5926" />
<rect x="27.1851" y="54.3704" width="13.5926" height="13.5926" />
<rect x="67.9633" y="54.3704" width="13.5926" height="13.5926" />
<rect x="108.741" y="54.3704" width="13.5926" height="13.5926" />
<rect x="149.518" y="54.3704" width="13.5926" height="13.5926" />
<rect x="190.296" y="54.3704" width="13.5926" height="13.5926" />
<rect x="40.7781" y="54.3704" width="13.5926" height="13.5926" />
<rect x="81.5558" y="54.3704" width="13.5926" height="13.5926" />
<rect x="122.333" y="54.3704" width="13.5926" height="13.5926" />
<rect x="163.111" y="54.3704" width="13.5926" height="13.5926" />
<rect x="203.889" y="54.3704" width="13.5926" height="13.5926" />
<rect x="40.7781" y="40.7777" width="13.5926" height="13.5926" />
<rect x="81.5558" y="40.7777" width="13.5926" height="13.5926" />
<rect x="122.333" y="40.7777" width="13.5926" height="13.5926" />
<rect x="163.111" y="40.7777" width="13.5926" height="13.5926" />
<rect x="203.889" y="40.7777" width="13.5926" height="13.5926" />
<rect x="40.7781" y="27.1852" width="13.5926" height="13.5926" />
<rect x="81.5558" y="27.1852" width="13.5926" height="13.5926" />
<rect x="122.333" y="27.1852" width="13.5926" height="13.5926" />
<rect x="163.111" y="27.1852" width="13.5926" height="13.5926" />
<rect x="203.889" y="27.1852" width="13.5926" height="13.5926" />
<rect x="40.7781" width="13.5926" height="13.5926" />
<rect x="54.37" width="13.5926" height="13.5926" />
<rect x="67.9633" width="13.5926" height="13.5926" />
<rect x="81.5558" width="13.5926" height="13.5926" />
<rect x="95.1477" width="13.5926" height="13.5926" />
<rect x="108.741" width="13.5926" height="13.5926" />
<rect x="122.333" width="13.5926" height="13.5926" />
<rect x="135.926" width="13.5926" height="13.5926" />
<rect x="149.518" width="13.5926" height="13.5926" />
<rect x="163.111" width="13.5926" height="13.5926" />
<rect x="176.704" width="13.5926" height="13.5926" />
<rect x="190.296" width="13.5926" height="13.5926" />
<rect x="203.889" width="13.5926" height="13.5926" />
<rect x="217.481" width="13.5926" height="13.5926" />
<rect x="231.074" width="13.5926" height="13.5926" />
<rect x="244.667" width="13.5926" height="13.5926" />
<rect x="258.259" width="13.5926" height="13.5926" />
<rect x="271.852" width="13.5926" height="13.5926" />
<rect x="285.444" width="13.5926" height="13.5926" />
<rect x="299.037" width="13.5926" height="13.5926" />
<rect x="312.63" width="13.5926" height="13.5926" />
<rect x="326.222" width="13.5926" height="13.5926" />
<rect x="339.815" width="13.5926" height="13.5926" />
<rect x="11.894" y="124.032" width="8.49536" height="8.49536" />
<rect y="13.5926" width="13.5926" height="13.5926" />
<rect y="27.1852" width="13.5926" height="13.5926" />
<rect y="40.7777" width="13.5926" height="13.5926" />
<rect y="54.3704" width="13.5926" height="13.5926" />
</svg>
