<svg role="img" viewBox="0 0 224 224" preservedAspectRatio="1/1" xmlns="http://www.w3.org/2000/svg">
<rect y="144" width="16" height="16" />
<rect y="160" width="16" height="16" />
<rect y="176" width="16" height="16" />
<rect y="192" width="16" height="16" />
<rect x="15" y="192" width="16" height="16" />
<rect x="32" y="208" width="16" height="16" />
<rect x="128" width="16" height="16" />
<rect x="96" y="16" width="16" height="16" />
<rect x="80" y="32" width="16" height="16" />
<rect x="129" y="176" width="16" height="16" />
<rect x="144" y="144" width="16" height="16" />
<rect x="160" y="112" width="16" height="16" />
<rect x="160" y="80" width="16" height="16" />
<rect x="144" y="112" width="16" height="16" />
<rect x="144" y="80" width="16" height="16" />
<rect x="128" y="80" width="16" height="16" />
<rect x="112" y="64" width="16" height="16" />
<rect x="112" width="16" height="16" />
<rect x="128" y="16" width="16" height="16" />
<rect x="128" y="32" width="16" height="16" />
<rect x="112" y="48" width="16" height="16" />
<rect x="96" y="80" width="16" height="16" />
<rect x="80" y="80" width="16" height="16" />
<rect x="145" y="176" width="16" height="16" />
<rect x="160" y="144" width="16" height="16" />
<rect x="176" y="112" width="16" height="16" />
<rect x="176" y="80" width="16" height="16" />
<rect x="161" y="176" width="16" height="16" />
<rect x="176" y="144" width="16" height="16" />
<rect x="192" y="112" width="16" height="16" />
<rect x="192" y="80" width="16" height="16" />
<rect width="16" height="16" transform="matrix(-1 0 0 1 96 208)" />
<rect width="16" height="16" transform="matrix(-1 0 0 1 112 208)" />
<rect width="16" height="16" transform="matrix(-1 0 0 1 128 208)" />
<rect width="16" height="16" transform="matrix(-1 0 0 1 144 208)" />
<rect width="16" height="16" transform="matrix(-1 0 0 1 160 208)" />
<rect width="16" height="16" transform="matrix(-1 0 0 1 176 208)" />
<rect width="16" height="16" transform="matrix(-1 0 0 1 192 192)" />
<rect width="16" height="16" transform="matrix(-1 0 0 1 208 160)" />
<rect width="16" height="16" transform="matrix(-1 0 0 1 224 128)" />
<rect width="16" height="16" transform="matrix(-1 0 0 1 224 96)" />
<rect width="16" height="16" transform="matrix(-1 0 0 1 192 176)" />
<rect width="16" height="16" transform="matrix(-1 0 0 1 208 144)" />
<rect width="16" height="16" transform="matrix(-1 0 0 1 224 112)" />
<rect width="16" height="16" transform="matrix(-1 0 0 1 224 80)" />
<rect x="64" y="208" width="16" height="16" />
<rect x="48" y="208" width="16" height="16" />
<rect x="64" y="48" width="16" height="16" />
<rect x="64" y="64" width="16" height="16" />
<rect y="128" width="16" height="16" />
<rect y="112" width="16" height="16" />
<rect x="48" y="64" width="16" height="16" />
<rect x="32" y="80" width="16" height="16" />
<rect x="16" y="96" width="16" height="16" />
<rect y="96" width="16" height="16" />
</svg>
